# xmcd
#
# Track frame offsets:
#	150
#	17667
#	44521
#	68903
#	91149
#	115672
#	125977
#	152925
#	167366
#	181926
#	201131
#	222623
#	244115
#	261816
#	282128
#
# Disc length: 4014
#
# Revision: 2
# Processed by: cddbd v1.5.1PL0 Copyright (c) Steve Scherf et al.
# Submitted via: EasyCDDAExtractor 5.0.7
# Normalized: r1:DSETVAR1
#
DISCID=d70fac0f
DTITLE=Various Artist - all this time
DYEAR=2002
DGENRE=Musique
TTITLE0=Sting - Fragile
TTITLE1=sting - A thousand years
TTITLE2=sting - Perfect love...Gone wrong
TTITLE3=sting - All this time
TTITLE4=sting - The hounds of winter
TTITLE5=sting - Don't stand so close to me
TTITLE6=sting - When we dance
TTITLE7=sting - Dienda
TTITLE8=sting - Roxanne
TTITLE9=sting - If you love somebody set them free
TTITLE10=sting - Brand new day
TTITLE11=sting - Fields of gold
TTITLE12=sting - Moon over bourbon street
TTITLE13=sting - If I ever lose my faith in you
TTITLE14=sting - Every breath you take
EXTD=
EXTT0=
EXTT1=
EXTT2=
EXTT3=
EXTT4=
EXTT5=
EXTT6=
EXTT7=
EXTT8=
EXTT9=
EXTT10=
EXTT11=
EXTT12=
EXTT13=
EXTT14=
PLAYORDER=
